<svg width="28" height="28" viewBox="0 0 30 30" fill="none" xmlns="http://www.w3.org/2000/svg">
<path fill-rule="evenodd" clip-rule="evenodd" d="M5.61914 28.1149H24.4173V30H5.61914V28.1149Z" fill="#333646"/>
<path fill-rule="evenodd" clip-rule="evenodd" d="M23.3812 6.08145C22.9533 4.34332 21.9562 2.79941 20.5497 1.69683C19.1432 0.59426 17.4084 -0.00322448 15.6232 1.72491e-05C13.7832 -0.00381282 11.9984 0.630298 10.5712 1.79494C9.14399 2.95958 8.1621 4.58314 7.79184 6.39061C7.28165 6.24873 6.75536 6.17333 6.22596 6.16628C5.40821 6.16579 4.59839 6.32694 3.8428 6.64054C3.08721 6.95413 2.40067 7.41401 1.82244 7.99387C1.24421 8.57374 0.785625 9.26222 0.472917 10.0199C0.160209 10.7777 -0.000493117 11.5898 1.13663e-06 12.4098C1.13663e-06 15.8577 2.23134 18.6534 5.67141 18.6534C5.70713 18.6534 5.73908 18.644 5.77668 18.644V26.1487H24.3399V19.7694C27.8796 19.5055 30 16.5477 30 12.932C29.9971 11.1526 29.3054 9.44379 28.0706 8.16583C26.8359 6.88787 25.1546 6.14057 23.3812 6.08145V6.08145ZM14.8299 3.22171C13.2471 4.24722 12.2301 5.86278 12.2301 7.6857H9.78445C9.78445 5.05028 11.9143 2.83903 14.7923 2.21882C15.313 2.10948 15.642 2.69387 14.8299 3.22171V3.22171Z" fill="#333646"/>
</svg>
