<svg width="50" height="50" viewBox="0 0 50 50" fill="none" xmlns="http://www.w3.org/2000/svg">
<path d="M16.8752 27.7916L22.771 21.8958L9.87517 9.02079C8.87517 8.02079 7.146 8.29162 6.521 9.58329C5.04183 12.6875 5.5835 16.5 8.146 19.0833L16.8752 27.7916ZM31.0002 24.0208C34.1877 25.5 38.6668 24.4583 41.9793 21.1458C45.9585 17.1666 46.7293 11.4583 43.6668 8.39579C40.6252 5.35412 34.9168 6.10412 30.9168 10.0833C27.6043 13.3958 26.5627 17.875 28.0418 21.0625L9.16683 39.9375C8.7773 40.327 8.55846 40.8553 8.55846 41.4062C8.55846 41.9571 8.7773 42.4854 9.16683 42.875C9.55637 43.2645 10.0847 43.4833 10.6356 43.4833C11.1865 43.4833 11.7148 43.2645 12.1043 42.875L25.0002 30.0208L37.8752 42.8958C38.0681 43.0887 38.297 43.2417 38.549 43.3461C38.801 43.4504 39.0711 43.5042 39.3439 43.5042C39.6167 43.5042 39.8868 43.4504 40.1388 43.3461C40.3908 43.2417 40.6198 43.0887 40.8127 42.8958C41.0056 42.7029 41.1586 42.4739 41.2629 42.2219C41.3673 41.9699 41.421 41.6998 41.421 41.427C41.421 41.1543 41.3673 40.8842 41.2629 40.6322C41.1586 40.3802 41.0056 40.1512 40.8127 39.9583L27.9377 27.0833L31.0002 24.0208Z" fill="#333646"/>
</svg>
