<svg width="33" height="32" viewBox="0 0 33 32" fill="none" xmlns="http://www.w3.org/2000/svg">
<path d="M32.317 15.7378L17.3233 0.350447C17.2154 0.239356 17.0872 0.151221 16.946 0.0910872C16.8048 0.0309529 16.6535 0 16.5007 0C16.3479 0 16.1965 0.0309529 16.0554 0.0910872C15.9142 0.151221 15.786 0.239356 15.678 0.350447L0.684343 15.7378C0.247528 16.1864 0 16.7958 0 17.4313C0 18.751 1.04472 19.8239 2.32968 19.8239H3.90949V30.8037C3.90949 31.4654 4.43003 32 5.07433 32H14.171V23.6259H18.2479V32H27.927C28.5713 32 29.0919 31.4654 29.0919 30.8037V19.8239H30.6717C31.2905 19.8239 31.8838 19.5735 32.3207 19.1211C33.2271 18.1865 33.2271 16.6724 32.317 15.7378Z" fill="black"/>
</svg>
