<svg width="28" height="28" viewBox="5 0 30 30" fill="none" xmlns="http://www.w3.org/2000/svg">
<path d="M20 0C22.5189 0 24.6638 0.885417 26.4347 2.65625C28.2055 4.42708 29.0909 6.57197 29.0909 9.09091C29.0909 11.6098 28.2055 13.7547 26.4347 15.5256C24.6638 17.2964 22.5189 18.1818 20 18.1818C17.4811 18.1818 15.3362 17.2964 13.5653 15.5256C11.7945 13.7547 10.9091 11.6098 10.9091 9.09091C10.9091 6.57197 11.7945 4.42708 13.5653 2.65625C15.3362 0.885417 17.4811 0 20 0ZM27.7273 9.14773C26.9886 9.29924 25.9328 9.22822 24.5597 8.93466C23.1866 8.6411 22.0265 8.29545 21.0795 7.89773C20.4356 7.61364 19.8201 7.28693 19.233 6.91761C18.6458 6.5483 17.9735 6.08428 17.2159 5.52557C16.4583 4.96686 15.8712 4.55492 15.4545 4.28977C15.7576 6.54356 14.697 8.15341 12.2727 9.11932C12.2917 11.2595 13.054 13.0777 14.5597 14.5739C16.0653 16.0701 17.8788 16.8182 20 16.8182C22.1212 16.8182 23.9347 16.0701 25.4403 14.5739C26.946 13.0777 27.7083 11.2689 27.7273 9.14773ZM23.6932 34.517H16.4773C16.2879 34.517 16.0417 34.4792 15.7386 34.4034C15.4356 34.3277 15.0758 34.1383 14.6591 33.8352C14.2424 33.5322 13.9678 33.1534 13.8352 32.6989C13.5322 31.6761 13.2765 30.142 13.0682 28.0966C12.8598 26.0511 12.6989 24.2282 12.5852 22.6278C12.4716 21.0275 12.3485 20.142 12.2159 19.9716C12.0833 20.0284 11.785 20.1799 11.321 20.4261C10.857 20.6723 10.3788 20.8902 9.88636 21.0795C9.31818 21.2879 8.54167 21.572 7.55682 21.9318C6.57197 22.2917 5.79545 22.5805 5.22727 22.7983C4.65909 23.0161 4.02936 23.2765 3.33807 23.5795C2.64678 23.8826 2.08807 24.1903 1.66193 24.5028C1.2358 24.8153 0.909091 25.1326 0.681818 25.4545C0.227273 26.6667 0 31.5152 0 40H40C40 37.8788 39.9479 35.1136 39.8438 31.7045C39.7396 28.2955 39.5644 26.2121 39.3182 25.4545C39.0909 25.1326 38.7642 24.8153 38.3381 24.5028C37.9119 24.1903 37.3532 23.8826 36.6619 23.5795C35.9706 23.2765 35.3409 23.0161 34.7727 22.7983C34.2045 22.5805 33.428 22.2917 32.4432 21.9318C31.4583 21.572 30.6818 21.2879 30.1136 21.0795C29.6212 20.8902 29.143 20.6723 28.679 20.4261C28.215 20.1799 27.9167 20.0284 27.7841 19.9716C27.6515 20.142 27.5426 21.0275 27.4574 22.6278C27.3722 24.2282 27.2396 26.0511 27.0597 28.0966C26.8797 30.142 26.6383 31.6761 26.3352 32.6989C26.2027 33.1534 25.928 33.5322 25.5114 33.8352C25.0947 34.1383 24.7348 34.3277 24.4318 34.4034C24.1288 34.4792 23.8826 34.517 23.6932 34.517ZM20 20.9091L25.4545 19.0909V24.5455L20 22.7273L14.5455 24.5455V19.0909L20 20.9091ZM20 27.2727C19.7727 27.2727 19.5644 27.1828 19.375 27.0028C19.1856 26.8229 19.0909 26.6098 19.0909 26.3636C19.0909 26.1174 19.1856 25.9044 19.375 25.7244C19.5644 25.5445 19.7727 25.4545 20 25.4545C20.2273 25.4545 20.4356 25.5445 20.625 25.7244C20.8144 25.9044 20.9091 26.1174 20.9091 26.3636C20.9091 26.6098 20.8144 26.8229 20.625 27.0028C20.4356 27.1828 20.2273 27.2727 20 27.2727ZM20 30.9091C19.7727 30.9091 19.5644 30.8191 19.375 30.6392C19.1856 30.4593 19.0909 30.2462 19.0909 30C19.0909 29.7538 19.1856 29.5407 19.375 29.3608C19.5644 29.1809 19.7727 29.0909 20 29.0909C20.2273 29.0909 20.4356 29.1809 20.625 29.3608C20.8144 29.5407 20.9091 29.7538 20.9091 30C20.9091 30.2462 20.8144 30.4593 20.625 30.6392C20.4356 30.8191 20.2273 30.9091 20 30.9091Z" fill="#333646"/>
</svg>
